<svg xmlns="http://www.w3.org/2000/svg" viewBox="0 0 1200 720" role="img" aria-label="F&amp;B ingredients background">
  <defs>
    <linearGradient id="bg" x1="0" y1="0" x2="1" y2="1">
      <stop offset="0" stop-color="#fff7ed"/>
      <stop offset="0.42" stop-color="#fef3c7"/>
      <stop offset="1" stop-color="#fed7aa"/>
    </linearGradient>
    <radialGradient id="glow" cx="0.28" cy="0.22" r="0.9">
      <stop offset="0" stop-color="#ffffff" stop-opacity="0.92"/>
      <stop offset="0.55" stop-color="#ffffff" stop-opacity="0.18"/>
      <stop offset="1" stop-color="#ffffff" stop-opacity="0"/>
    </radialGradient>
    <filter id="shadow" x="-20%" y="-20%" width="140%" height="140%">
      <feDropShadow dx="0" dy="18" stdDeviation="18" flood-color="#7c2d12" flood-opacity="0.18"/>
    </filter>
  </defs>
  <rect width="1200" height="720" fill="url(#bg)"/>
  <rect width="1200" height="720" fill="url(#glow)"/>
  <circle cx="1050" cy="95" r="210" fill="#fb923c" opacity="0.18"/>
  <circle cx="110" cy="655" r="260" fill="#22c55e" opacity="0.1"/>

  <g filter="url(#shadow)">
    <ellipse cx="590" cy="545" rx="450" ry="76" fill="#9a3412" opacity="0.18"/>
    <rect x="185" y="398" width="810" height="115" rx="58" fill="#f8fafc"/>
    <rect x="210" y="414" width="760" height="70" rx="35" fill="#fff7ed"/>
  </g>

  <g filter="url(#shadow)">
    <path d="M260 360c0-86 48-152 122-152s122 66 122 152c0 72-43 128-122 128s-122-56-122-128z" fill="#f97316"/>
    <path d="M285 355c0-64 36-113 97-113s97 49 97 113c0 57-35 100-97 100s-97-43-97-100z" fill="#fff7ed" opacity="0.94"/>
    <path d="M330 236h104l-18-54h-68z" fill="#0f766e"/>
    <rect x="340" y="162" width="84" height="32" rx="16" fill="#14b8a6"/>
    <circle cx="350" cy="337" r="21" fill="#fb7185" opacity="0.82"/>
    <circle cx="414" cy="372" r="18" fill="#a855f7" opacity="0.65"/>
    <circle cx="383" cy="410" r="20" fill="#0f766e" opacity="0.78"/>
  </g>

  <g filter="url(#shadow)">
    <path d="M564 214h236l-40 258c-7 44-38 72-78 72h-73c-40 0-72-28-78-72z" fill="#ffffff" opacity="0.95"/>
    <path d="M590 249h184l-28 196c-5 34-29 55-61 55h-44c-32 0-56-21-61-55z" fill="#f59e0b" opacity="0.72"/>
    <rect x="548" y="196" width="268" height="36" rx="18" fill="#0f172a" opacity="0.88"/>
    <rect x="622" y="129" width="32" height="92" rx="16" fill="#14b8a6" transform="rotate(-12 638 175)"/>
    <circle cx="632" cy="430" r="17" fill="#7c2d12" opacity="0.48"/>
    <circle cx="686" cy="395" r="15" fill="#7c2d12" opacity="0.42"/>
    <circle cx="721" cy="438" r="18" fill="#7c2d12" opacity="0.38"/>
  </g>

  <g filter="url(#shadow)">
    <rect x="816" y="305" width="168" height="210" rx="34" fill="#fde68a"/>
    <path d="M848 332h104v43H848z" fill="#f97316" opacity="0.86"/>
    <circle cx="900" cy="435" r="44" fill="#ffffff" opacity="0.84"/>
    <path d="M870 456c34-68 88-64 105-18" fill="none" stroke="#0f766e" stroke-width="20" stroke-linecap="round" opacity="0.76"/>
  </g>

  <g opacity="0.95">
    <ellipse cx="170" cy="452" rx="68" ry="22" fill="#16a34a" transform="rotate(-20 170 452)"/>
    <ellipse cx="1005" cy="360" rx="78" ry="24" fill="#16a34a" transform="rotate(24 1005 360)"/>
    <ellipse cx="1028" cy="438" rx="58" ry="20" fill="#0f766e" transform="rotate(-18 1028 438)"/>
    <circle cx="145" cy="350" r="22" fill="#fb7185" opacity="0.78"/>
    <circle cx="1024" cy="248" r="18" fill="#fb7185" opacity="0.72"/>
    <circle cx="116" cy="279" r="14" fill="#a855f7" opacity="0.52"/>
  </g>

  <path d="M0 0h1200v720H0z" fill="#ffffff" opacity="0.04"/>
</svg>
